<svg width="32" height="33" viewBox="0 0 32 33" fill="none" xmlns="http://www.w3.org/2000/svg">
<g filter="url(#filter0_d_958_2408)">
<path d="M16 8.49048C15.4477 8.49048 15 8.93819 15 9.49048V15.4905H9C8.44772 15.4905 8 15.9382 8 16.4905C8 17.0428 8.44772 17.4905 9 17.4905H15V23.4905C15 24.0428 15.4477 24.4905 16 24.4905C16.5523 24.4905 17 24.0428 17 23.4905V17.4905H23C23.5523 17.4905 24 17.0428 24 16.4905C24 15.9382 23.5523 15.4905 23 15.4905H17V9.49048C17 8.93819 16.5523 8.49048 16 8.49048Z" fill="#0085FF"/>
</g>
<defs>
<filter id="filter0_d_958_2408" x="0" y="0.490479" width="32" height="32" filterUnits="userSpaceOnUse" color-interpolation-filters="sRGB">
<feFlood flood-opacity="0" result="BackgroundImageFix"/>
<feColorMatrix in="SourceAlpha" type="matrix" values="0 0 0 0 0 0 0 0 0 0 0 0 0 0 0 0 0 0 127 0" result="hardAlpha"/>
<feOffset/>
<feGaussianBlur stdDeviation="4"/>
<feComposite in2="hardAlpha" operator="out"/>
<feColorMatrix type="matrix" values="0 0 0 0 0 0 0 0 0 0.52 0 0 0 0 1 0 0 0 0.4 0"/>
<feBlend mode="normal" in2="BackgroundImageFix" result="effect1_dropShadow_958_2408"/>
<feBlend mode="normal" in="SourceGraphic" in2="effect1_dropShadow_958_2408" result="shape"/>
</filter>
</defs>
</svg>
